<svg width="20" height="20" viewBox="0 0 20 20" fill="none" xmlns="http://www.w3.org/2000/svg">
<mask id="mask0_25_1489" style="mask-type:alpha" maskUnits="userSpaceOnUse" x="0" y="0" width="20" height="20">
<rect width="20" height="20" fill="#5F6368"/>
</mask>
<g mask="url(#mask0_25_1489)">
<path d="M1.6665 16.6667V14.1667H3.33317V5.00001C3.33317 4.54168 3.49637 4.14932 3.82275 3.82293C4.14914 3.49654 4.5415 3.33334 4.99984 3.33334H17.4998V5.00001H4.99984V14.1667H9.99984V16.6667H1.6665ZM12.4998 16.6667C12.2637 16.6667 12.0658 16.5868 11.9061 16.4271C11.7464 16.2674 11.6665 16.0695 11.6665 15.8333V7.50001C11.6665 7.2639 11.7464 7.06598 11.9061 6.90626C12.0658 6.74654 12.2637 6.66668 12.4998 6.66668H17.4998C17.7359 6.66668 17.9339 6.74654 18.0936 6.90626C18.2533 7.06598 18.3332 7.2639 18.3332 7.50001V15.8333C18.3332 16.0695 18.2533 16.2674 18.0936 16.4271C17.9339 16.5868 17.7359 16.6667 17.4998 16.6667H12.4998ZM13.3332 14.1667H16.6665V8.33334H13.3332V14.1667Z" fill="#5F6368"/>
</g>
</svg>
