<svg width="169" height="40" viewBox="0 0 169 40" fill="none" xmlns="http://www.w3.org/2000/svg">
<path d="M19.7003 19.2L4.30029 35.3C4.80029 37 6.40029 38.3 8.30029 38.3C9.10029 38.3 9.80029 38.1 10.4003 37.7L27.8003 27.8L19.7003 19.2Z" fill="#EA4335"/>
<path d="M35.3004 16.4L27.8004 12.1L19.4004 19.5L27.9004 27.8L35.4004 23.6C36.7004 22.9 37.6004 21.5 37.6004 20C37.5004 18.5 36.6004 17.1 35.3004 16.4Z" fill="#FBBC04"/>
<path d="M4.3002 4.7C4.2002 5 4.2002 5.4 4.2002 5.8V34.3C4.2002 34.7 4.2002 35 4.3002 35.4L20.3002 19.7L4.3002 4.7Z" fill="#4285F4"/>
<path d="M19.8003 20L27.8003 12.1L10.5003 2.3C9.90029 1.9 9.10029 1.7 8.30029 1.7C6.40029 1.7 4.70029 3 4.30029 4.7L19.8003 20Z" fill="#34A853"/>
<path d="M57.042 19.464H64.72C64.7493 19.6547 64.7787 19.86 64.808 20.08C64.8373 20.2853 64.852 20.5053 64.852 20.74C64.852 21.6787 64.7053 22.61 64.412 23.534C64.1187 24.458 63.62 25.2793 62.916 25.998C62.1973 26.746 61.354 27.3253 60.386 27.736C59.418 28.1467 58.3107 28.352 57.064 28.352C55.9347 28.352 54.864 28.1467 53.852 27.736C52.8547 27.3253 51.982 26.7533 51.234 26.02C50.486 25.2867 49.892 24.4213 49.452 23.424C49.0267 22.412 48.814 21.312 48.814 20.124C48.814 18.936 49.0267 17.8433 49.452 16.846C49.892 15.834 50.486 14.9613 51.234 14.228C51.982 13.4947 52.8547 12.9227 53.852 12.512C54.864 12.1013 55.9347 11.896 57.064 11.896C58.2667 11.896 59.374 12.1087 60.386 12.534C61.4127 12.9593 62.2707 13.5533 62.96 14.316L61.222 16.054C60.7087 15.482 60.1 15.042 59.396 14.734C58.7067 14.426 57.922 14.272 57.042 14.272C56.294 14.272 55.5753 14.4113 54.886 14.69C54.1967 14.9687 53.588 15.3647 53.06 15.878C52.532 16.3767 52.114 16.9853 51.806 17.704C51.498 18.4227 51.344 19.2293 51.344 20.124C51.344 21.0187 51.498 21.8253 51.806 22.544C52.114 23.2627 52.532 23.8787 53.06 24.392C53.588 24.8907 54.1967 25.2793 54.886 25.558C55.5753 25.8367 56.3013 25.976 57.064 25.976C58.076 25.976 58.89 25.822 59.506 25.514C60.1367 25.206 60.6647 24.8467 61.09 24.436C61.398 24.1427 61.6693 23.7613 61.904 23.292C62.1387 22.808 62.2927 22.28 62.366 21.708H57.042V19.464ZM72.1152 16.868C72.9365 16.868 73.6919 17.0147 74.3812 17.308C75.0705 17.5867 75.6645 17.9827 76.1632 18.496C76.6619 19.0093 77.0505 19.618 77.3292 20.322C77.6079 21.026 77.7472 21.7887 77.7472 22.61C77.7472 23.4313 77.6079 24.194 77.3292 24.898C77.0505 25.602 76.6619 26.2107 76.1632 26.724C75.6645 27.2373 75.0705 27.6407 74.3812 27.934C73.6919 28.2127 72.9365 28.352 72.1152 28.352C71.2939 28.352 70.5385 28.2127 69.8492 27.934C69.1599 27.6407 68.5659 27.2373 68.0672 26.724C67.5685 26.2107 67.1799 25.602 66.9012 24.898C66.6225 24.194 66.4832 23.4313 66.4832 22.61C66.4832 21.7887 66.6225 21.026 66.9012 20.322C67.1799 19.618 67.5685 19.0093 68.0672 18.496C68.5659 17.9827 69.1599 17.5867 69.8492 17.308C70.5385 17.0147 71.2939 16.868 72.1152 16.868ZM72.1152 26.086C72.5259 26.086 72.9219 26.0053 73.3032 25.844C73.6845 25.6827 74.0219 25.4553 74.3152 25.162C74.6232 24.8687 74.8652 24.5093 75.0412 24.084C75.2172 23.644 75.3052 23.1527 75.3052 22.61C75.3052 22.0673 75.2172 21.5833 75.0412 21.158C74.8652 20.718 74.6232 20.3513 74.3152 20.058C74.0219 19.7647 73.6845 19.5373 73.3032 19.376C72.9219 19.2147 72.5259 19.134 72.1152 19.134C71.7045 19.134 71.3085 19.2147 70.9272 19.376C70.5459 19.5373 70.2012 19.7647 69.8932 20.058C69.5999 20.3513 69.3652 20.718 69.1892 21.158C69.0132 21.5833 68.9252 22.0673 68.9252 22.61C68.9252 23.1527 69.0132 23.644 69.1892 24.084C69.3652 24.5093 69.5999 24.8687 69.8932 25.162C70.2012 25.4553 70.5459 25.6827 70.9272 25.844C71.3085 26.0053 71.7045 26.086 72.1152 26.086ZM84.8691 16.868C85.6904 16.868 86.4458 17.0147 87.1351 17.308C87.8244 17.5867 88.4184 17.9827 88.9171 18.496C89.4158 19.0093 89.8044 19.618 90.0831 20.322C90.3618 21.026 90.5011 21.7887 90.5011 22.61C90.5011 23.4313 90.3618 24.194 90.0831 24.898C89.8044 25.602 89.4158 26.2107 88.9171 26.724C88.4184 27.2373 87.8244 27.6407 87.1351 27.934C86.4458 28.2127 85.6904 28.352 84.8691 28.352C84.0478 28.352 83.2924 28.2127 82.6031 27.934C81.9138 27.6407 81.3198 27.2373 80.8211 26.724C80.3224 26.2107 79.9338 25.602 79.6551 24.898C79.3764 24.194 79.2371 23.4313 79.2371 22.61C79.2371 21.7887 79.3764 21.026 79.6551 20.322C79.9338 19.618 80.3224 19.0093 80.8211 18.496C81.3198 17.9827 81.9138 17.5867 82.6031 17.308C83.2924 17.0147 84.0478 16.868 84.8691 16.868ZM84.8691 26.086C85.2798 26.086 85.6758 26.0053 86.0571 25.844C86.4384 25.6827 86.7758 25.4553 87.0691 25.162C87.3771 24.8687 87.6191 24.5093 87.7951 24.084C87.9711 23.644 88.0591 23.1527 88.0591 22.61C88.0591 22.0673 87.9711 21.5833 87.7951 21.158C87.6191 20.718 87.3771 20.3513 87.0691 20.058C86.7758 19.7647 86.4384 19.5373 86.0571 19.376C85.6758 19.2147 85.2798 19.134 84.8691 19.134C84.4584 19.134 84.0624 19.2147 83.6811 19.376C83.2998 19.5373 82.9551 19.7647 82.6471 20.058C82.3538 20.3513 82.1191 20.718 81.9431 21.158C81.7671 21.5833 81.6791 22.0673 81.6791 22.61C81.6791 23.1527 81.7671 23.644 81.9431 24.084C82.1191 24.5093 82.3538 24.8687 82.6471 25.162C82.9551 25.4553 83.2998 25.6827 83.6811 25.844C84.0624 26.0053 84.4584 26.086 84.8691 26.086ZM97.491 33.104C96.743 33.104 96.0757 33.0013 95.489 32.796C94.917 32.6053 94.4183 32.356 93.993 32.048C93.5677 31.74 93.2157 31.3953 92.937 31.014C92.673 30.6327 92.475 30.266 92.343 29.914L94.675 28.968C94.8803 29.54 95.2323 30.002 95.731 30.354C96.2297 30.7207 96.8163 30.904 97.491 30.904C98.503 30.904 99.2877 30.596 99.845 29.98C100.417 29.364 100.703 28.5133 100.703 27.428V26.548H100.571C100.234 27.032 99.7643 27.4353 99.163 27.758C98.5763 28.0807 97.887 28.242 97.095 28.242C96.435 28.242 95.797 28.1027 95.181 27.824C94.565 27.5453 94.015 27.1567 93.531 26.658C93.0617 26.1593 92.6877 25.558 92.409 24.854C92.1303 24.15 91.991 23.38 91.991 22.544C91.991 21.708 92.1303 20.9453 92.409 20.256C92.6877 19.552 93.0617 18.9507 93.531 18.452C94.015 17.9533 94.565 17.5647 95.181 17.286C95.797 17.0073 96.435 16.868 97.095 16.868C97.887 16.868 98.5763 17.0293 99.163 17.352C99.7643 17.6747 100.234 18.078 100.571 18.562H100.703V17.22H103.057V27.384C103.057 28.308 102.91 29.122 102.617 29.826C102.338 30.5447 101.95 31.146 101.451 31.63C100.967 32.114 100.38 32.4807 99.691 32.73C99.0163 32.9793 98.283 33.104 97.491 33.104ZM97.579 25.976C97.975 25.976 98.3637 25.9027 98.745 25.756C99.1263 25.6093 99.4563 25.3893 99.735 25.096C100.028 24.8027 100.263 24.4433 100.439 24.018C100.615 23.5927 100.703 23.1013 100.703 22.544C100.703 22.0013 100.615 21.5173 100.439 21.092C100.263 20.652 100.028 20.2927 99.735 20.014C99.4563 19.7207 99.1263 19.5007 98.745 19.354C98.3637 19.1927 97.975 19.112 97.579 19.112C97.1683 19.112 96.7723 19.1927 96.391 19.354C96.0243 19.5007 95.6943 19.7207 95.401 20.014C95.1077 20.3073 94.873 20.6667 94.697 21.092C94.521 21.5173 94.433 22.0013 94.433 22.544C94.433 23.0867 94.521 23.5707 94.697 23.996C94.873 24.4213 95.1077 24.7807 95.401 25.074C95.6943 25.3673 96.0243 25.5947 96.391 25.756C96.7723 25.9027 97.1683 25.976 97.579 25.976ZM105.769 28V12.248H108.211V28H105.769ZM120.798 25.426C120.343 26.262 119.698 26.9587 118.862 27.516C118.026 28.0733 116.999 28.352 115.782 28.352C114.975 28.352 114.227 28.2127 113.538 27.934C112.863 27.6407 112.277 27.2373 111.778 26.724C111.279 26.2107 110.891 25.6093 110.612 24.92C110.333 24.216 110.194 23.446 110.194 22.61C110.194 21.8327 110.326 21.0993 110.59 20.41C110.854 19.706 111.221 19.0973 111.69 18.584C112.174 18.056 112.753 17.638 113.428 17.33C114.103 17.022 114.851 16.868 115.672 16.868C116.508 16.868 117.249 17.0073 117.894 17.286C118.554 17.5647 119.111 17.9533 119.566 18.452C120.021 18.9507 120.365 19.552 120.6 20.256C120.849 20.96 120.974 21.73 120.974 22.566C120.974 22.6393 120.974 22.7053 120.974 22.764C120.959 22.8373 120.952 22.9033 120.952 22.962C120.937 23.0207 120.93 23.0793 120.93 23.138H112.636C112.68 23.6513 112.805 24.0987 113.01 24.48C113.215 24.8613 113.465 25.1767 113.758 25.426C114.066 25.6753 114.403 25.8587 114.77 25.976C115.137 26.0933 115.496 26.152 115.848 26.152C116.552 26.152 117.131 25.9833 117.586 25.646C118.041 25.3087 118.415 24.8907 118.708 24.392L120.798 25.426ZM118.532 21.268C118.503 21.048 118.429 20.806 118.312 20.542C118.209 20.2633 118.041 20.014 117.806 19.794C117.586 19.5593 117.293 19.3613 116.926 19.2C116.574 19.0387 116.141 18.958 115.628 18.958C114.924 18.958 114.315 19.1707 113.802 19.596C113.303 20.0067 112.966 20.564 112.79 21.268H118.532ZM128.506 28V12.248H133.962C134.666 12.248 135.326 12.3653 135.942 12.6C136.573 12.8347 137.123 13.1647 137.592 13.59C138.061 14.0153 138.428 14.5287 138.692 15.13C138.971 15.7167 139.11 16.3693 139.11 17.088C139.11 17.792 138.971 18.4447 138.692 19.046C138.428 19.6327 138.061 20.1387 137.592 20.564C137.123 20.9893 136.573 21.3193 135.942 21.554C135.326 21.7887 134.666 21.906 133.962 21.906H130.992V28H128.506ZM134.028 19.53C134.439 19.53 134.805 19.464 135.128 19.332C135.451 19.1853 135.722 18.9947 135.942 18.76C136.162 18.5253 136.331 18.2613 136.448 17.968C136.565 17.6747 136.624 17.3813 136.624 17.088C136.624 16.78 136.565 16.4793 136.448 16.186C136.331 15.8927 136.162 15.636 135.942 15.416C135.722 15.1813 135.451 14.9907 135.128 14.844C134.805 14.6973 134.439 14.624 134.028 14.624H130.992V19.53H134.028ZM141.23 28V12.248H143.672V28H141.23ZM153.091 26.68H152.959C152.636 27.1053 152.218 27.494 151.705 27.846C151.192 28.1833 150.539 28.352 149.747 28.352C149.175 28.352 148.64 28.2567 148.141 28.066C147.642 27.89 147.21 27.6407 146.843 27.318C146.476 26.9807 146.183 26.592 145.963 26.152C145.758 25.6973 145.655 25.1987 145.655 24.656C145.655 24.084 145.765 23.5707 145.985 23.116C146.22 22.6613 146.535 22.28 146.931 21.972C147.342 21.664 147.826 21.4293 148.383 21.268C148.94 21.092 149.542 21.004 150.187 21.004C150.906 21.004 151.507 21.0773 151.991 21.224C152.475 21.356 152.842 21.4807 153.091 21.598V21.18C153.091 20.8573 153.018 20.5567 152.871 20.278C152.739 19.9993 152.548 19.7647 152.299 19.574C152.064 19.3687 151.793 19.2147 151.485 19.112C151.177 18.9947 150.854 18.936 150.517 18.936C149.974 18.936 149.483 19.046 149.043 19.266C148.618 19.4713 148.236 19.8087 147.899 20.278L145.963 19.002C146.476 18.298 147.114 17.77 147.877 17.418C148.64 17.0513 149.505 16.868 150.473 16.868C152.072 16.868 153.304 17.264 154.169 18.056C155.049 18.848 155.489 19.9773 155.489 21.444V28H153.091V26.68ZM153.091 23.512C152.768 23.3213 152.409 23.1673 152.013 23.05C151.617 22.9327 151.162 22.874 150.649 22.874C149.886 22.874 149.278 23.05 148.823 23.402C148.368 23.754 148.141 24.1793 148.141 24.678C148.141 24.942 148.2 25.1767 148.317 25.382C148.434 25.5727 148.581 25.7413 148.757 25.888C148.948 26.0347 149.16 26.1447 149.395 26.218C149.644 26.2913 149.894 26.328 150.143 26.328C150.539 26.328 150.913 26.2547 151.265 26.108C151.632 25.9467 151.947 25.7413 152.211 25.492C152.475 25.228 152.688 24.9273 152.849 24.59C153.01 24.2527 153.091 23.8933 153.091 23.512ZM161.166 27.384L156.678 17.22H159.406L162.376 24.37H162.486L165.368 17.22H168.074L161.32 32.752H158.724L161.166 27.384Z" fill="#5F6368"/>
</svg>
