<svg width="20" height="20" viewBox="0 0 20 20" fill="none" xmlns="http://www.w3.org/2000/svg">
<mask id="mask0_25_1559" style="mask-type:alpha" maskUnits="userSpaceOnUse" x="0" y="0" width="20" height="20">
<rect width="20" height="20" fill="#D9D9D9"/>
</mask>
<g mask="url(#mask0_25_1559)">
<path d="M5.83268 10.8332H14.166V9.1665H5.83268V10.8332ZM9.99935 18.3332C8.84657 18.3332 7.76324 18.1144 6.74935 17.6769C5.73546 17.2394 4.85352 16.6457 4.10352 15.8957C3.35352 15.1457 2.75977 14.2637 2.32227 13.2498C1.88477 12.2359 1.66602 11.1526 1.66602 9.99984C1.66602 8.84706 1.88477 7.76373 2.32227 6.74984C2.75977 5.73595 3.35352 4.854 4.10352 4.104C4.85352 3.354 5.73546 2.76025 6.74935 2.32275C7.76324 1.88525 8.84657 1.6665 9.99935 1.6665C11.1521 1.6665 12.2355 1.88525 13.2493 2.32275C14.2632 2.76025 15.1452 3.354 15.8952 4.104C16.6452 4.854 17.2389 5.73595 17.6764 6.74984C18.1139 7.76373 18.3327 8.84706 18.3327 9.99984C18.3327 11.1526 18.1139 12.2359 17.6764 13.2498C17.2389 14.2637 16.6452 15.1457 15.8952 15.8957C15.1452 16.6457 14.2632 17.2394 13.2493 17.6769C12.2355 18.1144 11.1521 18.3332 9.99935 18.3332ZM9.99935 16.6665C11.8605 16.6665 13.4368 16.0207 14.7285 14.729C16.0202 13.4373 16.666 11.8609 16.666 9.99984C16.666 8.13872 16.0202 6.56234 14.7285 5.27067C13.4368 3.979 11.8605 3.33317 9.99935 3.33317C8.13824 3.33317 6.56185 3.979 5.27018 5.27067C3.97852 6.56234 3.33268 8.13872 3.33268 9.99984C3.33268 11.8609 3.97852 13.4373 5.27018 14.729C6.56185 16.0207 8.13824 16.6665 9.99935 16.6665Z" fill="#5F6368"/>
</g>
</svg>
