<svg width="16" height="16" viewBox="0 0 16 16" fill="none" xmlns="http://www.w3.org/2000/svg">
<mask id="mask0_25_1595" style="mask-type:alpha" maskUnits="userSpaceOnUse" x="0" y="0" width="16" height="16">
<rect width="16" height="16" fill="#D9D9D9"/>
</mask>
<g mask="url(#mask0_25_1595)">
<path d="M6.66683 13.3333H9.3335V12.6666H6.66683V13.3333ZM4.66683 15.3333C4.30016 15.3333 3.98627 15.2027 3.72516 14.9416C3.46405 14.6805 3.3335 14.3666 3.3335 14V1.99996C3.3335 1.63329 3.46405 1.3194 3.72516 1.05829C3.98627 0.797182 4.30016 0.666626 4.66683 0.666626H11.3335C11.7002 0.666626 12.0141 0.797182 12.2752 1.05829C12.5363 1.3194 12.6668 1.63329 12.6668 1.99996V14C12.6668 14.3666 12.5363 14.6805 12.2752 14.9416C12.0141 15.2027 11.7002 15.3333 11.3335 15.3333H4.66683ZM4.66683 12V14H11.3335V12H4.66683ZM4.66683 10.6666H11.3335V3.99996H4.66683V10.6666ZM4.66683 2.66663H11.3335V1.99996H4.66683V2.66663Z" fill="#056449"/>
</g>
</svg>
