<svg width="16" height="16" viewBox="0 0 16 16" fill="none" xmlns="http://www.w3.org/2000/svg">
<mask id="mask0_25_1600" style="mask-type:alpha" maskUnits="userSpaceOnUse" x="0" y="0" width="16" height="16">
<rect width="16" height="16" fill="#D9D9D9"/>
</mask>
<g mask="url(#mask0_25_1600)">
<path d="M8 13.6666C8.18889 13.6666 8.34722 13.6027 8.475 13.475C8.60278 13.3472 8.66667 13.1888 8.66667 13C8.66667 12.8111 8.60278 12.6527 8.475 12.525C8.34722 12.3972 8.18889 12.3333 8 12.3333C7.81111 12.3333 7.65278 12.3972 7.525 12.525C7.39722 12.6527 7.33333 12.8111 7.33333 13C7.33333 13.1888 7.39722 13.3472 7.525 13.475C7.65278 13.6027 7.81111 13.6666 8 13.6666ZM3.33333 15.3333C2.96667 15.3333 2.65278 15.2027 2.39167 14.9416C2.13056 14.6805 2 14.3666 2 14V1.99996C2 1.63329 2.13056 1.3194 2.39167 1.05829C2.65278 0.797182 2.96667 0.666626 3.33333 0.666626H12.6667C13.0333 0.666626 13.3472 0.797182 13.6083 1.05829C13.8694 1.3194 14 1.63329 14 1.99996V14C14 14.3666 13.8694 14.6805 13.6083 14.9416C13.3472 15.2027 13.0333 15.3333 12.6667 15.3333H3.33333ZM3.33333 12V14H12.6667V12H3.33333ZM3.33333 10.6666H12.6667V3.99996H3.33333V10.6666ZM3.33333 2.66663H12.6667V1.99996H3.33333V2.66663Z" fill="#5F6368"/>
</g>
</svg>
